<svg width="1920" height="1920" viewBox="0 0 1920 1920" fill="none" xmlns="http://www.w3.org/2000/svg">
<path d="M1551.45 72.7312V442.631L1378.51 615.57L1250.27 487.32L1225.5 512.107L694.796 1042.79L1120.47 1468.46L922.563 1666.35L922.571 1855.02H992.647V1695.39L1170.02 1518.01L1250.27 1598.26L1805.73 1042.8L1580.11 817.181L1833.04 564.244V72.7312H1762.96V535.219L1530.55 767.625L1428.06 665.126L1621.52 471.664V72.7312H1551.45ZM72.5996 113.636V183.712H772.376L938.328 349.665C928.405 366.677 923.187 386.022 923.208 405.716C923.208 467.299 973.128 517.226 1034.7 517.226C1096.28 517.226 1146.2 467.299 1146.2 405.72C1146.2 344.141 1096.28 294.232 1034.7 294.232C1019.17 294.232 1004.37 297.42 990.933 303.165L801.408 113.64L72.5996 113.636ZM72.5996 321.679V391.766L564.322 391.777L730.275 557.73C720.347 574.74 715.125 594.086 715.143 613.781C715.143 675.356 765.063 725.276 826.638 725.276C888.213 725.276 938.137 675.356 938.137 613.781C938.137 552.206 888.217 502.282 826.642 502.282C811.102 502.282 796.312 505.47 782.872 511.215L593.347 321.69H72.6071L72.5996 321.679ZM385.297 529.736L72.6034 529.744V599.831L356.276 599.82L522.228 765.795C512.304 782.805 507.085 802.149 507.105 821.842C507.105 883.417 557.025 933.341 618.6 933.341C680.175 933.341 730.087 883.417 730.087 821.839C730.087 760.26 680.175 710.336 618.6 710.336C603.056 710.336 588.262 713.524 574.818 719.272L385.297 529.736ZM1250.27 586.436L1706.62 1042.8L1250.27 1499.14L793.912 1042.8L1250.27 586.444V586.436ZM1245.57 689.141L890.917 1043.79L1247.21 1400.1L1296.77 1350.55L990.03 1043.8L1295.13 738.69L1245.57 689.141ZM72.6071 769.984V962.01L673.095 1562.5V1855.02H743.182V1440.55L72.6071 769.984ZM1372.02 801.472L1322.47 851.025L1515.52 1044.08L1321.39 1238.22L1370.95 1287.77L1614.64 1044.08L1372.03 801.469L1372.02 801.472ZM1259.78 925.822C1194.34 925.822 1141.31 978.874 1141.31 1044.3C1141.31 1109.72 1194.35 1162.76 1259.77 1162.76C1325.21 1162.76 1378.25 1109.72 1378.25 1044.3C1378.25 978.863 1325.21 925.819 1259.78 925.819L1259.78 925.822ZM72.5996 1107.56V1299.59L428.422 1655.39V1855.01H498.502V1533.45L72.6071 1107.56H72.5996ZM1675.27 1381.89C1613.69 1381.89 1563.77 1431.81 1563.77 1493.38C1563.77 1554.96 1613.69 1604.89 1675.27 1604.89C1690.24 1604.89 1704.52 1601.91 1717.57 1596.56L1854.89 1733.87V1634.76L1770.88 1550.76C1781.31 1533.44 1786.8 1513.6 1786.77 1493.39C1786.77 1431.81 1736.85 1381.89 1675.27 1381.89V1381.89ZM72.5996 1448.21V1640.25L189.952 1757.59L189.945 1855.02H260.025L260.047 1635.66L72.5996 1448.21ZM1467.23 1589.95C1405.66 1589.95 1355.73 1639.87 1355.73 1701.45C1355.73 1763.02 1405.65 1812.93 1467.23 1812.93C1480.4 1812.93 1493.04 1810.64 1504.77 1806.45L1553.35 1855.01H1652.46L1560.28 1762.84C1572.34 1744.63 1578.75 1723.28 1578.72 1701.44C1578.72 1639.86 1528.8 1589.94 1467.23 1589.94L1467.23 1589.95Z" fill="#DDF9DD"/>
</svg>
