<svg width="790" height="790" viewBox="0 0 790 790" fill="none" xmlns="http://www.w3.org/2000/svg">
<g clip-path="url(#clip0_77_72)">
<path d="M711 0H79C58.0479 0 37.9539 8.32319 23.1386 23.1386C8.32319 37.9539 0 58.0479 0 79L0 790L158 632H711C731.952 632 752.046 623.677 766.861 608.861C781.677 594.046 790 573.952 790 553V79C790 58.0479 781.677 37.9539 766.861 23.1386C752.046 8.32319 731.952 0 711 0ZM553 158C564.719 158 576.174 161.475 585.918 167.985C595.661 174.496 603.255 183.749 607.74 194.576C612.224 205.403 613.398 217.316 611.112 228.809C608.825 240.302 603.182 250.86 594.896 259.146C586.61 267.432 576.052 273.075 564.559 275.362C553.066 277.648 541.153 276.474 530.326 271.99C519.499 267.505 510.246 259.911 503.735 250.168C497.225 240.424 493.75 228.969 493.75 217.25C493.75 201.536 499.992 186.465 511.104 175.354C522.215 164.242 537.286 158 553 158ZM237 158C248.719 158 260.174 161.475 269.918 167.985C279.661 174.496 287.255 183.749 291.74 194.576C296.224 205.403 297.398 217.316 295.112 228.809C292.825 240.302 287.182 250.86 278.896 259.146C270.61 267.432 260.052 273.075 248.559 275.362C237.066 277.648 225.153 276.474 214.326 271.99C203.499 267.505 194.246 259.911 187.735 250.168C181.225 240.424 177.75 228.969 177.75 217.25C177.75 201.536 183.992 186.465 195.104 175.354C206.215 164.242 221.286 158 237 158ZM395 474C291.905 474 204.215 447.535 171.825 355.5H618.175C585.785 447.535 498.095 474 395 474Z" fill="#2A5741"/>
</g>
<defs>
<clipPath id="clip0_77_72">
<rect width="790" height="790" fill="white"/>
</clipPath>
</defs>
</svg>
