<svg width="16" height="16" viewBox="0 0 16 16" fill="none" xmlns="http://www.w3.org/2000/svg">
<path d="M2.53125 0.671875C2.13094 0.671875 1.8125 0.990375 1.8125 1.39069C1.8125 1.791 2.13094 2.10944 2.53125 2.10944C2.93156 2.10944 3.25006 1.791 3.25006 1.39069C3.25006 0.990375 2.93156 0.671875 2.53125 0.671875ZM13.4688 0.671875C13.0684 0.671875 12.7499 0.990375 12.7499 1.39069C12.7499 1.791 13.0684 2.10944 13.4688 2.10944C13.8691 2.10944 14.1875 1.791 14.1875 1.39069C14.1875 0.990375 13.8691 0.671875 13.4688 0.671875ZM3.44313 2.28791C3.31015 2.42331 3.14891 2.52768 2.97094 2.59356L3.86675 4.02691L4.33497 3.71478L3.44313 2.28791ZM12.5569 2.28791L11.665 3.71478L12.1333 4.02691L13.0291 2.59356C12.8511 2.52768 12.6899 2.42331 12.5569 2.28791ZM4.96419 3.97134L3.83472 4.72431L4.04259 5.34791C4.33056 4.95972 4.77194 4.66081 5.28053 4.44441C5.31716 4.42878 5.35459 4.414 5.39203 4.39916L4.96419 3.97134ZM11.0358 3.97134L10.608 4.39916C10.6454 4.414 10.6828 4.42881 10.7195 4.44441C11.2281 4.66081 11.6694 4.95972 11.9574 5.34791L12.1653 4.72431L11.0358 3.97134ZM8 4.51566C7.09375 4.51566 6.18684 4.67 5.50072 4.96194C4.81641 5.25316 4.37859 5.66131 4.27684 6.16081L3.32125 13.3282H12.6788L11.7232 6.16081C11.6214 5.66131 11.1836 5.25316 10.4993 4.96194C9.81312 4.67003 8.90625 4.51569 8 4.51569V4.51566ZM6 6.32816C6.98041 6.32816 7.78125 7.129 7.78125 8.10941C7.78125 9.08981 6.98041 9.89066 6 9.89066C5.01959 9.89066 4.21875 9.08981 4.21875 8.10941C4.21875 7.129 5.01959 6.32816 6 6.32816ZM10 6.32816C10.9804 6.32816 11.7812 7.129 11.7812 8.10941C11.7812 9.08981 10.9804 9.89066 10 9.89066C9.01959 9.89066 8.21875 9.08981 8.21875 8.10941C8.21875 7.129 9.01959 6.32816 10 6.32816ZM5.98284 6.82887C5.27178 6.82887 4.6845 7.40281 4.6845 8.10941C4.6845 8.816 5.27178 9.38994 5.98284 9.38994C6.69391 9.38994 7.28125 8.816 7.28125 8.10941C7.28125 7.40281 6.69391 6.82887 5.98284 6.82887ZM9.98284 6.82887C9.27178 6.82887 8.6845 7.40281 8.6845 8.10941C8.6845 8.816 9.27178 9.38994 9.98284 9.38994C10.6939 9.38994 11.2812 8.816 11.2812 8.10941C11.2812 7.40281 10.6939 6.82887 9.98284 6.82887ZM5.98284 7.39131C6.39528 7.39131 6.71875 7.71222 6.71875 8.10941C6.71875 8.50659 6.39531 8.82747 5.98284 8.82747C5.57038 8.82747 5.24694 8.50659 5.24694 8.10941C5.24694 7.71222 5.57038 7.39131 5.98284 7.39131ZM9.98284 7.39131C10.3953 7.39131 10.7188 7.71222 10.7188 8.10941C10.7188 8.50659 10.3953 8.82747 9.98284 8.82747C9.57037 8.82747 9.24694 8.50659 9.24694 8.10941C9.24694 7.71222 9.57041 7.39131 9.98287 7.39131H9.98284ZM6.5 10.3282H9.5V10.8907H6.5V10.3282ZM6 11.3282H10V11.8907H6V11.3282ZM5.5 12.3282H10.5V12.8907H5.5V12.3282ZM2.28125 13.8907V15.3282H3.71875V13.8907H2.28125ZM4.28125 13.8907V15.3282H5.71875V13.8907H4.28125ZM6.28125 13.8907V15.3282H7.71875V13.8907H6.28125ZM8.28125 13.8907V15.3282H9.71875V13.8907H8.28125ZM10.2812 13.8907V15.3282H11.7188V13.8907H10.2812ZM12.2812 13.8907V15.3282H13.7188V13.8907H12.2812Z" fill="white"/>
</svg>
