<svg width="200" height="200" viewBox="0 0 200 200" fill="none" xmlns="http://www.w3.org/2000/svg">
<g clip-path="url(#clip0_76_38)">
<path d="M100 199.992C155.229 199.992 200 155.221 200 99.9917C200 44.775 155.229 0 100 0C44.7708 0 0 44.7708 0 99.9958C0 155.221 44.7708 199.992 100 199.992Z" fill="#DDF9DD"/>
<path d="M118.184 45.4542C118.184 44.4894 117.8 43.5642 117.118 42.8821C116.436 42.1999 115.511 41.8167 114.546 41.8167H85.4544C84.9763 41.815 84.5025 41.908 84.0605 42.0902C83.6184 42.2724 83.2167 42.5403 82.8786 42.8784C82.5405 43.2165 82.2727 43.6181 82.0904 44.0602C81.9082 44.5023 81.8153 44.976 81.8169 45.4542L78.1836 70.9083H121.817L118.184 45.4542Z" fill="#163316"/>
<path d="M129.092 114.542C129.092 118.558 125.833 121.813 121.817 121.813H78.1832C77.228 121.813 76.2821 121.625 75.3995 121.26C74.5169 120.895 73.7149 120.36 73.0393 119.685C72.3637 119.009 71.8277 118.208 71.4621 117.325C71.0964 116.443 70.9082 115.497 70.9082 114.542V70.9084H129.092V114.542Z" fill="#2A5741"/>
<path d="M100 41.8167H85.4586C84.9806 41.8161 84.5071 41.9098 84.0653 42.0923C83.6235 42.2749 83.222 42.5427 82.8838 42.8806C82.5456 43.2184 82.2773 43.6196 82.0942 44.0612C81.9112 44.5028 81.8169 44.9761 81.8169 45.4542L78.1836 70.9083H100V41.8167Z" fill="#1E521E"/>
<path d="M99.9999 70.9084H70.9082V114.542C70.9082 118.558 74.1665 121.813 78.179 121.813H99.9999V70.9084Z" fill="#2B5858"/>
<path d="M92.7293 56.3666C93.694 56.3666 94.6192 55.9833 95.3014 55.3012C95.9836 54.619 96.3668 53.6938 96.3668 52.7291C96.3668 51.7643 95.9836 50.8391 95.3014 50.157C94.6192 49.4748 93.694 49.0916 92.7293 49.0916C91.7646 49.0916 90.8394 49.4748 90.1572 50.157C89.475 50.8391 89.0918 51.7643 89.0918 52.7291C89.0918 53.6938 89.475 54.619 90.1572 55.3012C90.8394 55.9833 91.7646 56.3666 92.7293 56.3666ZM107.275 56.3666C108.24 56.3666 109.165 55.9833 109.847 55.3012C110.529 54.619 110.913 53.6938 110.913 52.7291C110.913 51.7643 110.529 50.8391 109.847 50.157C109.165 49.4748 108.24 49.0916 107.275 49.0916C106.31 49.0916 105.385 49.4748 104.703 50.157C104.021 50.8391 103.638 51.7643 103.638 52.7291C103.638 53.6938 104.021 54.619 104.703 55.3012C105.385 55.9833 106.31 56.3666 107.275 56.3666Z" fill="white"/>
<path d="M110.909 64.5416C110.909 65.2647 110.622 65.9583 110.111 66.47C109.6 66.9817 108.907 67.2697 108.184 67.2708H91.8169C91.1121 67.2433 90.4453 66.9439 89.9564 66.4355C89.4674 65.9271 89.1943 65.2491 89.1943 64.5437C89.1943 63.8384 89.4674 63.1604 89.9564 62.652C90.4453 62.1436 91.1121 61.8442 91.8169 61.8167H108.184C109.688 61.8167 110.909 63.0416 110.909 64.5458" fill="#E0E6E2"/>
<path d="M147.275 114.542C147.275 118.558 144.017 121.813 140 121.813H136.363C134.435 121.812 132.586 121.045 131.223 119.682C129.859 118.319 129.093 116.47 129.092 114.542V70.9084H140C144.017 70.9084 147.275 74.1626 147.275 78.1793V114.542Z" fill="#163316"/>
<path d="M134.541 129.083V136.358H127.271V129.088L134.546 121.812H141.816L149.091 129.088V136.358H141.816V129.088L134.541 129.083Z" fill="#2A5741"/>
<path d="M52.7295 114.542C52.7295 118.558 55.9837 121.813 60.0003 121.813H63.6378C67.6545 121.813 70.9087 118.558 70.9087 114.542V70.9084H60.0003C55.9837 70.9084 52.7295 74.1626 52.7295 78.1793V114.542Z" fill="#163316"/>
<path d="M65.4582 129.083V136.358H72.729V129.088L65.454 121.812H58.1832L50.9082 129.088V136.358H58.1832V129.088L65.4582 129.083Z" fill="#2A5741"/>
<path d="M96.3628 121.812H78.1836V143.629H96.3628V121.812ZM121.817 121.812H103.638V143.629H121.817V121.812Z" fill="#163316"/>
<path d="M96.3628 129.083H78.1836V136.358H96.3628V129.083ZM121.817 129.083H103.638V136.358H121.817V129.083Z" fill="#E0E6E2"/>
<path d="M74.5459 147.267C74.5459 145.258 76.1709 143.633 78.1834 143.633H96.3667C97.3667 143.633 98.1834 144.446 98.1834 145.45V156.358C98.1834 157.358 97.3667 158.175 96.3667 158.175H78.1834C77.7056 158.177 77.2322 158.084 76.7904 157.902C76.3486 157.72 75.9472 157.452 75.6091 157.115C75.2711 156.777 75.0031 156.376 74.8206 155.934C74.6382 155.493 74.5448 155.019 74.5459 154.542V147.267ZM125.458 147.267C125.457 146.303 125.074 145.378 124.392 144.697C123.709 144.016 122.785 143.633 121.821 143.633H103.638C103.156 143.634 102.695 143.826 102.354 144.167C102.014 144.507 101.822 144.968 101.821 145.45V156.358C101.821 157.358 102.633 158.175 103.638 158.175H121.821C123.829 158.175 125.454 156.55 125.454 154.542L125.458 147.267Z" fill="#2A5741"/>
<path d="M118.184 114.542C118.661 114.542 119.134 114.448 119.576 114.265C120.017 114.082 120.418 113.814 120.756 113.476C121.093 113.139 121.361 112.738 121.544 112.296C121.727 111.855 121.821 111.382 121.821 110.904C121.821 110.427 121.727 109.954 121.544 109.512C121.361 109.071 121.093 108.67 120.756 108.332C120.418 107.994 120.017 107.726 119.576 107.544C119.134 107.361 118.661 107.267 118.184 107.267C117.219 107.267 116.294 107.65 115.611 108.332C114.929 109.014 114.546 109.939 114.546 110.904C114.546 111.869 114.929 112.794 115.611 113.476C116.294 114.158 117.219 114.542 118.184 114.542ZM81.8211 85.4542C82.2988 85.4542 82.7718 85.3601 83.2131 85.1773C83.6544 84.9945 84.0554 84.7266 84.3932 84.3888C84.731 84.051 84.9989 83.65 85.1817 83.2087C85.3645 82.7674 85.4586 82.2944 85.4586 81.8167C85.4586 81.339 85.3645 80.866 85.1817 80.4247C84.9989 79.9834 84.731 79.5824 84.3932 79.2446C84.0554 78.9068 83.6544 78.6389 83.2131 78.4561C82.7718 78.2733 82.2988 78.1792 81.8211 78.1792C80.8564 78.1792 79.9312 78.5624 79.249 79.2446C78.5668 79.9268 78.1836 80.852 78.1836 81.8167C78.1836 82.7814 78.5668 83.7066 79.249 84.3888C79.9312 85.071 80.8564 85.4542 81.8211 85.4542ZM81.8211 114.542C82.7858 114.542 83.711 114.158 84.3932 113.476C85.0754 112.794 85.4586 111.869 85.4586 110.904C85.4586 109.939 85.0754 109.014 84.3932 108.332C83.711 107.65 82.7858 107.267 81.8211 107.267C80.8564 107.267 79.9312 107.65 79.249 108.332C78.5668 109.014 78.1836 109.939 78.1836 110.904C78.1836 111.869 78.5668 112.794 79.249 113.476C79.9312 114.158 80.8564 114.542 81.8211 114.542ZM118.184 85.4542C118.661 85.4542 119.134 85.3601 119.576 85.1773C120.017 84.9945 120.418 84.7266 120.756 84.3888C121.093 84.051 121.361 83.65 121.544 83.2087C121.727 82.7674 121.821 82.2944 121.821 81.8167C121.821 81.339 121.727 80.866 121.544 80.4247C121.361 79.9834 121.093 79.5824 120.756 79.2446C120.418 78.9068 120.017 78.6389 119.576 78.4561C119.134 78.2733 118.661 78.1792 118.184 78.1792C117.219 78.1792 116.294 78.5624 115.611 79.2446C114.929 79.9268 114.546 80.852 114.546 81.8167C114.546 82.7814 114.929 83.7066 115.611 84.3888C116.294 85.071 117.219 85.4542 118.184 85.4542Z" fill="#E0E6E2"/>
</g>
<defs>
<clipPath id="clip0_76_38">
<rect width="200" height="200" fill="white"/>
</clipPath>
</defs>
</svg>
