<svg width="50" height="50" viewBox="0 0 50 50" fill="none" xmlns="http://www.w3.org/2000/svg">
<path d="M39.3313 9.375L43.75 13.7938V36.2063L39.3313 40.625H10.6688L6.25 36.2063V13.7938L10.6688 9.375H39.3313ZM40.625 6.25H9.375L3.125 12.5V37.5L9.375 43.75H40.625L46.875 37.5V12.5L40.625 6.25Z" fill="#DDF9DD"/>
<path d="M12.5 31.25H37.5V34.375H12.5V31.25ZM12.5 21.875V25H15.625V21.875C15.625 21.0462 15.9542 20.2513 16.5403 19.6653C17.1263 19.0792 17.9212 18.75 18.75 18.75C19.5788 18.75 20.3737 19.0792 20.9597 19.6653C21.5458 20.2513 21.875 21.0462 21.875 21.875V25H25V21.875C25 20.2174 24.3415 18.6277 23.1694 17.4556C21.9973 16.2835 20.4076 15.625 18.75 15.625C17.0924 15.625 15.5027 16.2835 14.3306 17.4556C13.1585 18.6277 12.5 20.2174 12.5 21.875ZM27.9312 22.2937L36.05 17.6062L37.6125 20.3125L29.4937 25L27.9312 22.2937Z" fill="#DDF9DD"/>
</svg>
