<svg width="28" height="28" viewBox="0 0 28 28" fill="none" xmlns="http://www.w3.org/2000/svg">
<path d="M14.0004 25.9531C20.5279 25.9531 25.9534 20.5391 25.9534 14.0001C25.9534 7.47262 20.5159 2.04712 13.9884 2.04712C7.44985 2.04712 2.04785 7.47262 2.04785 14.0001C2.04785 20.5391 7.46135 25.9531 14.0004 25.9531ZM14.0009 23.9611C8.46885 23.9611 4.05035 19.5311 4.05035 14.0001C4.05035 8.48012 8.45685 4.03912 13.9884 4.03912C19.5079 4.03912 23.9489 8.48062 23.9609 14.0001C23.9724 19.5316 19.5194 23.9611 13.9999 23.9611M19.0389 16.4961C19.3554 16.9296 19.8944 16.9651 20.2224 16.4961L22.0974 13.8476C22.4024 13.4261 22.2849 12.9101 21.7459 12.9101H20.5739C20.0004 9.66412 17.3634 7.41412 14.0239 7.41412C12.5589 7.41412 11.0939 7.92962 10.0744 8.77362C9.51185 9.20712 9.38285 9.81662 9.79335 10.2501C10.1919 10.6951 10.7309 10.6251 11.1994 10.2736C12.0434 9.61712 12.8869 9.26562 14.0239 9.26562C16.3559 9.26562 18.3008 10.8476 18.8169 12.9106H17.5044C16.9654 12.9106 16.8364 13.4256 17.1409 13.8476L19.0389 16.4961ZM6.25385 15.0431H7.48385C8.05885 18.2891 10.6949 20.5391 14.0469 20.5391C15.4999 20.5391 16.9764 20.0351 17.9959 19.1916C18.5469 18.7466 18.6759 18.1366 18.2774 17.7031C17.8674 17.2581 17.3279 17.3401 16.8709 17.6796C16.0274 18.3361 15.1834 18.6996 14.0469 18.6996C11.7029 18.6996 9.75735 17.1171 9.24185 15.0431H10.4844C11.0349 15.0431 11.1524 14.5276 10.8594 14.1056L8.94935 11.4691C8.64435 11.0236 8.09335 11.0001 7.76535 11.4691L5.89035 14.1056C5.58535 14.5276 5.70285 15.0431 6.25385 15.0431Z" fill="#DDF9DD"/>
</svg>
