<svg width="26" height="26" viewBox="0 0 26 26" fill="none" xmlns="http://www.w3.org/2000/svg">
<path d="M19.1636 17.3989L22.0724 20.3125L19.162 23.2269L20.3125 24.375L24.375 20.3125L20.3125 16.25L19.1636 17.3989ZM16.5864 17.3989L13.6776 20.3125L16.588 23.2269L15.4375 24.375L11.375 20.3125L15.4375 16.25L16.5864 17.3989ZM17.875 4.875H19.5V11.375H17.875V4.875ZM14.625 4.875H16.25V11.375H14.625V4.875ZM11.375 11.375H9.75C8.85381 11.375 8.125 10.6462 8.125 9.75V6.5C8.125 5.60381 8.85381 4.875 9.75 4.875H11.375C12.2712 4.875 13 5.60381 13 6.5V9.75C13 10.6462 12.2712 11.375 11.375 11.375ZM9.75 6.5V9.75H11.375V6.5H9.75ZM4.875 4.875H6.5V11.375H4.875V4.875Z" fill="#DDF9DD"/>
<path d="M8.125 22.75H3.25C2.35381 22.75 1.625 22.0212 1.625 21.125V3.25C1.625 2.35381 2.35381 1.625 3.25 1.625H21.125C22.0212 1.625 22.75 2.35381 22.75 3.25V13H21.125V3.25H3.25V21.125H8.125V22.75Z" fill="#DDF9DD"/>
</svg>
