<svg width="24" height="24" viewBox="0 0 24 24" fill="none" xmlns="http://www.w3.org/2000/svg">
<path d="M15 8C15 6.67392 14.4732 5.40215 13.5355 4.46447C12.5979 3.52678 11.3261 3 10 3C8.67392 3 7.40215 3.52678 6.46447 4.46447C5.52678 5.40215 5 6.67392 5 8C5 9.32608 5.52678 10.5979 6.46447 11.5355C7.40215 12.4732 8.67392 13 10 13C11.3261 13 12.5979 12.4732 13.5355 11.5355C14.4732 10.5979 15 9.32608 15 8Z" stroke="#DDF9DD" stroke-width="1.5" stroke-linecap="round" stroke-linejoin="round"/>
<path d="M3 20.0001C2.99986 18.7713 3.32319 17.5641 3.93751 16.4998C4.55183 15.4356 5.43549 14.5518 6.49964 13.9373C7.5638 13.3228 8.77097 12.9993 9.99979 12.9993C11.2286 12.9992 12.4358 13.3227 13.5 13.9371M18.105 14.5061L18.721 15.7481C18.7732 15.8412 18.8444 15.9223 18.9301 15.986C19.0157 16.0498 19.1138 16.0948 19.218 16.1181L20.334 16.3051C21.048 16.4251 21.216 16.9471 20.701 17.4621L19.834 18.3371C19.7576 18.4233 19.7014 18.5255 19.6698 18.6363C19.6381 18.7471 19.6317 18.8635 19.651 18.9771L19.9 20.0591C20.096 20.9171 19.645 21.2491 18.892 20.8001L17.846 20.1761C17.739 20.1204 17.6201 20.0912 17.4995 20.0912C17.3789 20.0912 17.26 20.1204 17.153 20.1761L16.106 20.8001C15.357 21.2481 14.902 20.9131 15.098 20.0601L15.347 18.9761C15.3663 18.8627 15.36 18.7465 15.3285 18.636C15.297 18.5254 15.2411 18.4233 15.165 18.3371L14.297 17.4621C13.787 16.9471 13.951 16.4251 14.665 16.3051L15.781 16.1181C15.8845 16.0943 15.9818 16.049 16.0667 15.9853C16.1516 15.9216 16.2222 15.8408 16.274 15.7481L16.89 14.5061C17.226 13.8311 17.772 13.8311 18.105 14.5061Z" stroke="#DDF9DD" stroke-width="1.5" stroke-linecap="round" stroke-linejoin="round"/>
</svg>
