<svg width="50" height="50" viewBox="0 0 50 50" fill="none" xmlns="http://www.w3.org/2000/svg">
<path d="M27.0834 6.24992C35.2084 6.24992 41.6667 12.7083 41.6667 20.8333C41.6667 26.6666 38.3334 31.6666 33.3334 33.9582V43.7499H18.7501V37.4999H16.6667C14.3751 37.4999 12.5001 35.6249 12.5001 33.3333V27.0833H9.37505C8.54172 27.0833 7.91672 26.0416 8.54172 25.4166L12.5001 20.2083C12.9167 12.2916 19.1667 6.24992 27.0834 6.24992ZM27.0834 2.08325C17.5001 2.08325 9.58339 9.16658 8.54172 18.5416L5.20839 22.9166C3.95839 24.5833 3.95839 26.6666 4.79172 28.3333C5.62505 29.7916 6.87505 30.8333 8.33339 31.0416V33.3333C8.33339 37.2916 11.0417 40.4166 14.5834 41.4582V47.9166H37.5001V36.4583C42.7084 32.9166 45.8334 27.2916 45.8334 20.8333C45.8334 10.4166 37.5001 2.08325 27.0834 2.08325ZM31.2501 18.7499L24.7917 31.2499L26.0417 22.9166H21.6667L26.0417 12.4999H31.2501L28.1251 18.7499H31.2501Z" fill="#DDF9DD"/>
</svg>
