<svg width="50" height="50" viewBox="0 0 50 50" fill="none" xmlns="http://www.w3.org/2000/svg">
<path d="M39.8274 45.0212C39.8657 45.3267 39.8434 45.6368 39.7618 45.9336C39.6803 46.2305 39.541 46.5084 39.352 46.7515C39.163 46.9945 38.928 47.1979 38.6604 47.3501C38.3927 47.5023 38.0977 47.6003 37.7922 47.6384C37.6956 47.6498 37.5985 47.6557 37.5012 47.656C36.9306 47.6552 36.3799 47.4462 35.9523 47.0683C35.5248 46.6904 35.2498 46.1695 35.1789 45.6033L33.6164 33.1033C33.5653 32.6937 33.6233 32.2778 33.7845 31.8978C33.9457 31.5178 34.2044 31.1871 34.5344 30.9392C36.2234 29.6677 37.5857 28.0128 38.5091 26.1111C39.4325 24.2093 39.8904 22.1153 39.845 20.0017C39.845 19.8435 39.8313 19.6892 39.8235 19.5329H37.0364L32.5246 24.947C32.7164 25.4639 32.8143 26.0109 32.8137 26.5622C32.8165 27.5273 32.5222 28.4699 31.9708 29.262C31.4193 30.054 30.6375 30.6572 29.7314 30.9895C28.8253 31.3218 27.8389 31.3672 26.9061 31.1196C25.9734 30.8719 25.1394 30.3432 24.5175 29.6051C23.8956 28.8671 23.516 27.9556 23.43 26.9943C23.3441 26.0331 23.5562 25.0686 24.0373 24.232C24.5185 23.3954 25.2454 22.7272 26.1195 22.318C26.9936 21.9089 27.9724 21.7787 28.9231 21.9451L34.1379 15.6951C34.3571 15.4296 34.6321 15.2156 34.9433 15.0684C35.2546 14.9213 35.5944 14.8445 35.9387 14.8435H38.6555C37.6513 12.6308 36.061 10.735 34.0566 9.36137C32.0523 7.98773 29.7104 7.1886 27.2844 7.05053C27.0448 7.0375 26.8046 7.03099 26.5637 7.03099V10.7869C27.4573 11.3028 28.1558 12.0992 28.5506 13.0525C28.9455 14.0059 29.0148 15.0628 28.7477 16.0596C28.4807 17.0563 27.8922 17.937 27.0735 18.5652C26.2549 19.1934 25.2518 19.5338 24.22 19.5338C23.1881 19.5338 22.185 19.1934 21.3664 18.5652C20.5477 17.937 19.9592 17.0563 19.6922 16.0596C19.4251 15.0628 19.4944 14.0059 19.8893 13.0525C20.2842 12.0992 20.9826 11.3028 21.8762 10.7869V7.87865C19.3513 8.8343 17.177 10.5356 15.642 12.7564C14.107 14.9772 13.284 17.6126 13.2825 20.3122C13.2822 20.689 13.1911 21.0602 13.0168 21.3943L8.88988 29.3259L13.4778 31.4255C13.8858 31.6125 14.2315 31.9127 14.4738 32.2905C14.7162 32.6682 14.845 33.1076 14.845 33.5564V39.8435H23.4387C24.0603 39.8435 24.6564 40.0904 25.096 40.53C25.5355 40.9695 25.7825 41.5656 25.7825 42.1872C25.7825 42.8088 25.5355 43.405 25.096 43.8445C24.6564 44.2841 24.0603 44.531 23.4387 44.531H14.0637C13.0277 44.531 12.0341 44.1194 11.3016 43.3869C10.569 42.6543 10.1575 41.6607 10.1575 40.6247V35.0603L6.13988 33.2204C6.11435 33.2105 6.08955 33.1987 6.06566 33.1853C5.17518 32.7395 4.4886 31.9704 4.14626 31.0352C3.80393 30.1 3.83168 29.0694 4.22386 28.154C4.24563 28.1 4.27041 28.0471 4.29808 27.9958L8.59496 19.7204C8.67355 17.3287 9.2291 14.9767 10.229 12.8026C11.2289 10.6284 12.653 8.67589 14.4178 7.05959C16.1825 5.4433 18.2524 4.1958 20.5058 3.3903C22.7592 2.5848 25.1508 2.23754 27.5403 2.36888C36.8567 2.85912 44.3235 10.5564 44.5325 19.8904C44.5894 22.5147 44.0727 25.1198 43.0185 27.5237C41.9643 29.9276 40.3979 32.0725 38.4289 33.8083L39.8274 45.0212Z" fill="#DDF9DD"/>
</svg>
