<svg width="50" height="50" viewBox="0 0 50 50" fill="none" xmlns="http://www.w3.org/2000/svg">
<path d="M27.0834 6.24992C35.2084 6.24992 41.6667 12.7083 41.6667 20.8333C41.6667 26.6666 38.3334 31.6666 33.3334 33.9582V43.7499H18.7501V37.4999H16.6667C14.3751 37.4999 12.5001 35.6249 12.5001 33.3333V27.0833H9.37505C8.54172 27.0833 7.91672 26.0416 8.54172 25.4166L12.5001 20.2083C12.9167 12.2916 19.1667 6.24992 27.0834 6.24992ZM27.0834 2.08325C17.5001 2.08325 9.58339 9.16658 8.54172 18.5416L5.20839 22.9166C3.95839 24.5833 3.95839 26.6666 4.79172 28.3333C5.62505 29.7916 6.87505 30.8333 8.33339 31.0416V33.3333C8.33339 37.2916 11.0417 40.4166 14.5834 41.4582V47.9166H37.5001V36.4583C42.7084 32.9166 45.8334 27.2916 45.8334 20.8333C45.8334 10.4166 37.5001 2.08325 27.0834 2.08325ZM29.1667 29.1666H25.0001V27.0833H29.1667V29.1666ZM32.5001 19.7916C31.8751 20.6249 31.2501 21.4583 30.2084 22.0833V24.9999H23.9584V22.0833C21.0417 20.4166 20.0001 16.4583 21.6667 13.5416C23.3334 10.6249 27.2917 9.58325 30.2084 11.2499C33.1251 12.9166 34.1667 16.8749 32.5001 19.7916Z" fill="#DDF9DD"/>
</svg>
