<svg width="50" height="50" viewBox="0 0 50 50" fill="none" xmlns="http://www.w3.org/2000/svg">
<path d="M27.0822 6.24992C35.1656 6.24992 41.6656 12.7916 41.6656 20.8333C41.6656 26.6666 38.2697 31.6457 33.3322 33.9791V43.7499H18.7489V37.4999H16.6656C14.3531 37.4999 12.4989 35.6458 12.4989 33.3333V27.0833H9.37389C8.49889 27.0833 7.99889 26.0416 8.49889 25.3958L12.4989 20.1249C12.6824 16.3818 14.2994 12.8528 17.0145 10.2696C19.7296 7.68638 23.3346 6.24703 27.0822 6.24992ZM27.0822 2.08325C17.5406 2.08325 9.60305 9.22908 8.45722 18.5624L5.20722 22.9166C3.99888 24.4166 3.79055 26.4999 4.66555 28.3124C5.41555 29.8124 6.74889 30.8333 8.33222 31.1458V33.3333C8.33222 37.2083 10.9989 40.4791 14.5822 41.3958V47.9166H37.4989V36.3957C42.7072 32.9791 45.8322 27.2083 45.8322 20.8333C45.8322 10.4999 37.4156 2.08325 27.0822 2.08325ZM33.5406 19.6249V18.7499C33.5406 18.4374 33.5406 18.2499 33.4156 17.9583L35.2697 16.5833C35.4156 16.4999 35.4156 16.2083 35.4156 15.9999L33.7072 13.1666C33.6031 12.9791 33.3322 12.8749 33.1239 12.9791L31.0614 13.8541C30.6864 13.4583 30.2072 13.1666 29.7072 12.9791L29.3739 10.8333C29.3114 10.5416 29.1656 10.4166 28.9156 10.4166H25.6031C25.3947 10.4166 25.2072 10.5416 25.2072 10.8333L24.9156 12.9791C24.4364 13.1666 23.9572 13.4583 23.5406 13.8541L21.3947 12.9791C21.2072 12.8749 21.0406 12.9791 20.9156 13.1666L19.2489 15.9999C19.1447 16.2916 19.1447 16.4999 19.3531 16.5833L21.1031 17.9583C21.1031 18.2499 21.0406 18.5416 21.0406 18.7499C21.0406 19.0416 21.1031 19.3333 21.1031 19.6249L19.3531 20.9791C19.1447 21.0833 19.1447 21.2708 19.2489 21.4791L20.9156 24.3958C21.0406 24.6041 21.2072 24.6041 21.3947 24.6041L23.4572 23.7083C23.9572 24.1041 24.3322 24.3124 24.9156 24.4999L25.2072 26.7499C25.2072 26.9374 25.3947 27.0833 25.6031 27.0833H28.9156C29.1656 27.0833 29.3114 26.9374 29.3739 26.7499L29.7072 24.4999C30.2072 24.3124 30.6864 24.1041 31.0614 23.7291L33.1239 24.6041C33.3322 24.6041 33.6031 24.6041 33.7072 24.3958L35.4156 21.4791C35.4156 21.2708 35.4156 21.0833 35.2697 20.9791L33.5406 19.6249ZM27.2906 21.7708C25.6656 21.7708 24.3322 20.3958 24.3322 18.7499C24.3322 17.1041 25.6031 15.8124 27.2906 15.8124C28.9156 15.8124 30.2906 17.0833 30.2906 18.7499C30.2906 20.4166 28.9156 21.7708 27.2906 21.7708Z" fill="#DDF9DD"/>
</svg>
